# xmcd CD database file
#
# Track frame offsets:
#	150
#	17020
#	31912
#	49890
#	62222
#	74090
#	88775
#	93640
#	104915
#	122960
#
# Disc length: 1718 seconds
#
# Revision: 0
# Processed by: cddbd v1.5PL3 Copyright (c) Steve Scherf et al.
# Submitted via: CDex 1.50
#
DISCID=9706b40a
DTITLE=suitcase rhodes - pop music for pop people
DYEAR=2000
DGENRE=Pop
TTITLE0=Rice Cake
TTITLE1=日々の泡
TTITLE2=そして風は吹く(album version)
TTITLE3=Heavenly Place
TTITLE4=異邦人
TTITLE5=Loose Toaster(album version)
TTITLE6=Siesta
TTITLE7=九月の雨
TTITLE8=Sleeping Face
TTITLE9=さくらんぼ色の人生
EXTD=YEAR: 2000
EXTT0=
EXTT1=
EXTT2=
EXTT3=
EXTT4=
EXTT5=
EXTT6=
EXTT7=
EXTT8=
EXTT9=
PLAYORDER=
